<?xml version="1.0" encoding="UTF-8" standalone="no"?><svg xmlns="http://www.w3.org/2000/svg" xmlns:xlink="http://www.w3.org/1999/xlink" contentStyleType="text/css" height="327px" preserveAspectRatio="none" style="width:376px;height:327px;" version="1.1" viewBox="0 0 376 327" width="376px" zoomAndPan="magnify"><defs><style type="text/css"><![CDATA[*.s_181818_e7e7e7 {stroke:#181818;}*.f_000000_ffffff {fill:#000000;}*.f_181818_e7e7e7 {fill:#181818;}@media (prefers-color-scheme:dark) {*.s_181818_e7e7e7 {stroke:#e7e7e7;}*.f_000000_ffffff {fill:#ffffff;}*.f_181818_e7e7e7 {fill:#e7e7e7;}}]]></style></defs><g><line class="s_181818_e7e7e7" style="stroke-width:0.5;stroke-dasharray:5.0,5.0;" x1="25" x2="25" y1="81.2969" y2="246.9609"/><line class="s_181818_e7e7e7" style="stroke-width:0.5;stroke-dasharray:5.0,5.0;" x1="130" x2="130" y1="81.2969" y2="246.9609"/><line class="s_181818_e7e7e7" style="stroke-width:0.5;stroke-dasharray:5.0,5.0;" x1="185" x2="185" y1="81.2969" y2="246.9609"/><line class="s_181818_e7e7e7" style="stroke-width:0.5;stroke-dasharray:5.0,5.0;" x1="236" x2="236" y1="81.2969" y2="246.9609"/><line class="s_181818_e7e7e7" style="stroke-width:0.5;stroke-dasharray:5.0,5.0;" x1="286" x2="286" y1="81.2969" y2="246.9609"/><line class="s_181818_e7e7e7" style="stroke-width:0.5;stroke-dasharray:5.0,5.0;" x1="343" x2="343" y1="81.2969" y2="246.9609"/><text class="f_000000_ffffff" font-family="sans-serif" font-size="14" lengthAdjust="spacing" textLength="35" x="5" y="77.9951">Foo1</text><ellipse class="s_181818_e7e7e7" cx="25.5" cy="13.5" fill="#E2E2F0" rx="8" ry="8" style="stroke-width:0.5;"/><path class="s_181818_e7e7e7" d="M25.5,21.5 L25.5,48.5 M12.5,29.5 L38.5,29.5 M25.5,48.5 L12.5,63.5 M25.5,48.5 L38.5,63.5 " fill="none" style="stroke-width:0.5;"/><text class="f_000000_ffffff" font-family="sans-serif" font-size="14" lengthAdjust="spacing" textLength="35" x="5" y="258.9561">Foo1</text><ellipse class="s_181818_e7e7e7" cx="25.5" cy="270.7578" fill="#E2E2F0" rx="8" ry="8" style="stroke-width:0.5;"/><path class="s_181818_e7e7e7" d="M25.5,278.7578 L25.5,305.7578 M12.5,286.7578 L38.5,286.7578 M25.5,305.7578 L12.5,320.7578 M25.5,305.7578 L38.5,320.7578 " fill="none" style="stroke-width:0.5;"/><text class="f_000000_ffffff" font-family="sans-serif" font-size="14" lengthAdjust="spacing" textLength="34" x="110.5" y="77.9951">Foo2</text><path class="s_181818_e7e7e7" d="M110,37 L110,61 M110,49 L127,49 " fill="none" style="stroke-width:0.5;"/><ellipse class="s_181818_e7e7e7" cx="139" cy="49" fill="#E2E2F0" rx="12" ry="12" style="stroke-width:0.5;"/><text class="f_000000_ffffff" font-family="sans-serif" font-size="14" lengthAdjust="spacing" textLength="34" x="110.5" y="258.9561">Foo2</text><path class="s_181818_e7e7e7" d="M110,266.2578 L110,290.2578 M110,278.2578 L127,278.2578 " fill="none" style="stroke-width:0.5;"/><ellipse class="s_181818_e7e7e7" cx="139" cy="278.2578" fill="#E2E2F0" rx="12" ry="12" style="stroke-width:0.5;"/><text class="f_000000_ffffff" font-family="sans-serif" font-size="14" lengthAdjust="spacing" textLength="35" x="165" y="77.9951">Foo3</text><ellipse class="s_181818_e7e7e7" cx="185.5" cy="49" fill="#E2E2F0" rx="12" ry="12" style="stroke-width:0.5;"/><polygon class="f_181818_e7e7e7 s_181818_e7e7e7" points="181.5,37,187.5,32,185.5,37,187.5,42,181.5,37" style="stroke-width:1.0;"/><text class="f_000000_ffffff" font-family="sans-serif" font-size="14" lengthAdjust="spacing" textLength="35" x="165" y="258.9561">Foo3</text><ellipse class="s_181818_e7e7e7" cx="185.5" cy="278.2578" fill="#E2E2F0" rx="12" ry="12" style="stroke-width:0.5;"/><polygon class="f_181818_e7e7e7 s_181818_e7e7e7" points="181.5,266.2578,187.5,261.2578,185.5,266.2578,187.5,271.2578,181.5,266.2578" style="stroke-width:1.0;"/><text class="f_000000_ffffff" font-family="sans-serif" font-size="14" lengthAdjust="spacing" textLength="34" x="216" y="77.9951">Foo4</text><ellipse class="s_181818_e7e7e7" cx="236" cy="49" fill="#E2E2F0" rx="12" ry="12" style="stroke-width:0.5;"/><line class="s_181818_e7e7e7" style="stroke-width:0.5;" x1="224" x2="248" y1="63" y2="63"/><text class="f_000000_ffffff" font-family="sans-serif" font-size="14" lengthAdjust="spacing" textLength="34" x="216" y="258.9561">Foo4</text><ellipse class="s_181818_e7e7e7" cx="236" cy="278.2578" fill="#E2E2F0" rx="12" ry="12" style="stroke-width:0.5;"/><line class="s_181818_e7e7e7" style="stroke-width:0.5;" x1="224" x2="248" y1="292.2578" y2="292.2578"/><text class="f_000000_ffffff" font-family="sans-serif" font-size="14" lengthAdjust="spacing" textLength="35" x="266" y="77.9951">Foo5</text><path class="s_181818_e7e7e7" d="M268.5,29 C268.5,19 286.5,19 286.5,19 C286.5,19 304.5,19 304.5,29 L304.5,55 C304.5,65 286.5,65 286.5,65 C286.5,65 268.5,65 268.5,55 L268.5,29 " fill="#E2E2F0" style="stroke-width:1.5;"/><path class="s_181818_e7e7e7" d="M268.5,29 C268.5,39 286.5,39 286.5,39 C286.5,39 304.5,39 304.5,29 " fill="none" style="stroke-width:1.5;"/><text class="f_000000_ffffff" font-family="sans-serif" font-size="14" lengthAdjust="spacing" textLength="35" x="266" y="258.9561">Foo5</text><path class="s_181818_e7e7e7" d="M268.5,272.2578 C268.5,262.2578 286.5,262.2578 286.5,262.2578 C286.5,262.2578 304.5,262.2578 304.5,272.2578 L304.5,298.2578 C304.5,308.2578 286.5,308.2578 286.5,308.2578 C286.5,308.2578 268.5,308.2578 268.5,298.2578 L268.5,272.2578 " fill="#E2E2F0" style="stroke-width:1.5;"/><path class="s_181818_e7e7e7" d="M268.5,272.2578 C268.5,282.2578 286.5,282.2578 286.5,282.2578 C286.5,282.2578 304.5,282.2578 304.5,272.2578 " fill="none" style="stroke-width:1.5;"/><rect class="s_181818_e7e7e7" fill="#E2E2F0" height="30.2969" style="stroke-width:0.5;" width="49" x="321" y="46"/><rect class="s_181818_e7e7e7" fill="#E2E2F0" height="30.2969" style="stroke-width:0.5;" width="49" x="317" y="50"/><text class="f_000000_ffffff" font-family="sans-serif" font-size="14" lengthAdjust="spacing" textLength="35" x="324" y="69.9951">Foo7</text><rect class="s_181818_e7e7e7" fill="#E2E2F0" height="30.2969" style="stroke-width:0.5;" width="49" x="321" y="245.9609"/><rect class="s_181818_e7e7e7" fill="#E2E2F0" height="30.2969" style="stroke-width:0.5;" width="49" x="317" y="249.9609"/><text class="f_000000_ffffff" font-family="sans-serif" font-size="14" lengthAdjust="spacing" textLength="35" x="324" y="269.9561">Foo7</text><polygon fill="#FF0000" points="118.5,108.4297,128.5,112.4297,118.5,116.4297,122.5,112.4297" style="stroke:#FF0000;stroke-width:1.0;"/><line style="stroke:#FF0000;stroke-width:1.0;" x1="25.5" x2="124.5" y1="112.4297" y2="112.4297"/><text class="f_000000_ffffff" font-family="sans-serif" font-size="13" lengthAdjust="spacing" textLength="81" x="32.5" y="107.3638">To boundary</text><polygon class="f_181818_e7e7e7 s_181818_e7e7e7" points="173.5,137.5625,183.5,141.5625,173.5,145.5625,177.5,141.5625" style="stroke-width:1.0;"/><line class="s_181818_e7e7e7" style="stroke-width:1.0;" x1="25.5" x2="179.5" y1="141.5625" y2="141.5625"/><text class="f_000000_ffffff" font-family="sans-serif" font-size="13" lengthAdjust="spacing" textLength="64" x="32.5" y="136.4966">To control</text><polygon class="f_181818_e7e7e7 s_181818_e7e7e7" points="224,166.6953,234,170.6953,224,174.6953,228,170.6953" style="stroke-width:1.0;"/><line class="s_181818_e7e7e7" style="stroke-width:1.0;" x1="25.5" x2="230" y1="170.6953" y2="170.6953"/><text class="f_000000_ffffff" font-family="sans-serif" font-size="13" lengthAdjust="spacing" textLength="57" x="32.5" y="165.6294">To entity</text><polygon class="f_181818_e7e7e7 s_181818_e7e7e7" points="274.5,195.8281,284.5,199.8281,274.5,203.8281,278.5,199.8281" style="stroke-width:1.0;"/><line class="s_181818_e7e7e7" style="stroke-width:1.0;" x1="25.5" x2="280.5" y1="199.8281" y2="199.8281"/><text class="f_000000_ffffff" font-family="sans-serif" font-size="13" lengthAdjust="spacing" textLength="80" x="32.5" y="194.7622">To database</text><polygon class="f_181818_e7e7e7 s_181818_e7e7e7" points="331.5,224.9609,341.5,228.9609,331.5,232.9609,335.5,228.9609" style="stroke-width:1.0;"/><line class="s_181818_e7e7e7" style="stroke-width:1.0;" x1="25.5" x2="337.5" y1="228.9609" y2="228.9609"/><text class="f_000000_ffffff" font-family="sans-serif" font-size="13" lengthAdjust="spacing" textLength="87" x="32.5" y="223.895">To collections</text><!--MD5=[906b60811b22771fd827d81c5b235eb1]
@startuml
actor Foo1
boundary Foo2
control Foo3
entity Foo4
database Foo5
collections Foo7
Foo1 -[#red]> Foo2 : To boundary
Foo1 -> Foo3 : To control
Foo1 -> Foo4 : To entity
Foo1 -> Foo5 : To database
Foo1 -> Foo7 : To collections
@enduml

PlantUML version 1.2022.2beta5(Unknown compile time)
(GPL source distribution)
Java Runtime: Java(TM) SE Runtime Environment
JVM: Java HotSpot(TM) 64-Bit Server VM
Default Encoding: UTF-8
Language: en
Country: US
--></g></svg>